<svg width="80" height="80" viewBox="0 0 80 80" fill="none" xmlns="http://www.w3.org/2000/svg">
<g clip-path="url(#clip0_1_13)">
<path d="M80 0L0 0L0 80H80V0Z" fill="#0E3438"/>
<path d="M52.4161 18H28.2561C27.8001 18 27.4881 18.464 27.6601 18.884L39.7401 48.64C39.9561 49.176 40.7161 49.176 40.9321 48.64L53.0121 18.884C53.1841 18.464 52.8721 18 52.4161 18Z" fill="white"/>
<path d="M17.3001 51.424L33.9401 61.864C34.4761 62.2 35.1281 61.64 34.8721 61.06L18.2321 23.216C17.9521 22.58 17.0001 22.78 17.0001 23.476V50.884C16.9961 51.1 17.1121 51.304 17.3001 51.424Z" fill="white"/>
<path d="M63.6281 50.824V23.404C63.6281 22.708 62.6761 22.508 62.3961 23.144L45.6721 61.06C45.4161 61.64 46.0641 62.204 46.6041 61.864L63.3281 51.372C63.5121 51.252 63.6281 51.048 63.6281 50.824Z" fill="white"/>
</g>
<defs>
<clipPath id="clip0_1_13">
<rect width="80" height="80" rx="20" fill="white"/>
</clipPath>
</defs>
</svg>
