<svg viewBox="0 0 176 44" fill="none" xmlns="http://www.w3.org/2000/svg">
<path d="M35.4384 0.0180664H11.2783C10.8209 0.0180664 10.5112 0.47903 10.6836 0.904805L22.7637 30.6598C22.9818 31.1947 23.7384 31.1947 23.9565 30.6598L36.0331 0.904805C36.2055 0.482549 35.8923 0.0180664 35.4384 0.0180664Z" fill="white"/>
<path d="M0.32066 33.4396L16.9611 43.8799C17.4995 44.2177 18.1469 43.6547 17.8936 43.0741L1.25314 5.22937C0.971639 4.59246 0.0215622 4.79303 0.0215622 5.48976V32.8942C0.0180433 33.1159 0.134164 33.32 0.32066 33.4396Z" fill="white"/>
<path d="M46.649 32.8415V5.41944C46.649 4.72272 45.699 4.52215 45.4175 5.15905L28.6926 43.0742C28.4357 43.6548 29.0867 44.2178 29.6251 43.88L46.3499 33.3869C46.5329 33.2708 46.649 33.0632 46.649 32.8415Z" fill="white"/>
<path d="M112.89 19.069C112.109 17.8022 111.001 16.8697 109.561 16.275C108.122 15.6803 106.412 15.3848 104.431 15.3848C103.242 15.3848 102.073 15.4692 100.926 15.6416C99.7756 15.8141 98.6707 16.0709 97.5974 16.4158C96.5277 16.7606 95.5037 17.1934 94.5255 17.7213L96.109 21.9192C97.4567 21.233 98.7164 20.7439 99.8917 20.4554C101.067 20.1633 102.182 20.019 103.238 20.019C104.769 20.019 105.912 20.2442 106.665 20.6911C107.418 21.1415 107.795 21.972 107.795 23.186V23.5414H105.895C103.069 23.5414 100.757 23.7595 98.9627 24.1958C97.1681 24.6322 95.8486 25.3043 95.0041 26.2156C94.1596 27.127 93.7373 28.2812 93.7373 29.6817C93.7373 30.9238 94.0716 32.0322 94.7472 33.0105C95.4193 33.9887 96.3518 34.7593 97.5411 35.3258C98.7305 35.8924 100.061 36.1774 101.542 36.1774C102.784 36.1774 103.847 35.9944 104.73 35.6214C105.613 35.2519 106.38 34.7382 107.028 34.0767C107.675 33.4151 108.196 32.6656 108.594 31.8176H108.791V35.7375H114.058V24.0516C114.058 22.0001 113.668 20.3357 112.89 19.069ZM107.165 29.5655C106.743 30.2271 106.187 30.7549 105.501 31.149C104.814 31.5431 104.061 31.7437 103.245 31.7437C102.267 31.7437 101.482 31.5466 100.888 31.149C100.293 30.7514 99.9973 30.1743 99.9973 29.4072C99.9973 28.9075 100.127 28.4958 100.395 28.1791C100.659 27.8624 101.049 27.6126 101.563 27.4261C102.077 27.2431 102.724 27.1094 103.506 27.0285C104.283 26.9511 105.202 26.9088 106.257 26.9088H107.802V27.3065C107.798 28.151 107.587 28.904 107.165 29.5655Z" fill="white"/>
<path d="M71.4178 7.81934H64.4048L76.6854 35.7446H82.1923L94.5082 7.81934H87.5374L79.4758 27.6759L71.4178 7.81934Z" fill="white"/>
<path d="M130.773 30.9907C130.403 31.0681 130.045 31.1279 129.703 31.1701C129.358 31.2088 128.989 31.2299 128.595 31.2299C128.067 31.2299 127.631 31.1244 127.289 30.9132C126.944 30.7021 126.688 30.3854 126.515 29.9632C126.343 29.5409 126.258 29.0131 126.258 28.3797V7.81934H119.801V28.8547C119.801 31.2053 120.428 33.014 121.684 34.2807C122.94 35.5475 124.78 36.1809 127.208 36.1809C128.053 36.1809 128.774 36.1281 129.365 36.0225C129.96 35.917 130.6 35.7446 131.287 35.5088L130.773 30.9907Z" fill="white"/>
<path d="M152.934 18.9176C152.153 17.6508 151.048 16.7183 149.605 16.1237C148.166 15.529 146.456 15.2334 144.475 15.2334C143.286 15.2334 142.117 15.3178 140.97 15.4903C139.82 15.6627 138.711 15.9196 137.641 16.2644C136.572 16.6093 135.548 17.0421 134.57 17.5699L136.153 21.7678C137.501 21.0816 138.76 20.5925 139.936 20.304C141.111 20.0119 142.226 19.8677 143.282 19.8677C144.813 19.8677 145.956 20.0929 146.709 20.5398C147.462 20.9902 147.839 21.8206 147.839 23.0346V23.39H145.939C143.113 23.39 140.801 23.6082 139.007 24.0445C137.212 24.4808 135.889 25.1529 135.045 26.0643C134.2 26.9756 133.778 28.1298 133.778 29.5303C133.778 30.7724 134.116 31.8809 134.788 32.8591C135.46 33.8373 136.392 34.6079 137.582 35.1745C138.771 35.741 140.105 36.026 141.583 36.026C142.825 36.026 143.887 35.843 144.771 35.47C145.654 35.1006 146.421 34.5868 147.068 33.9253C147.716 33.2637 148.237 32.5142 148.634 31.6662H148.831V35.5862H154.099V23.9002C154.106 21.8488 153.715 20.1879 152.934 18.9176ZM147.213 29.4177C146.79 30.0792 146.234 30.6071 145.548 31.0012C144.862 31.3988 144.109 31.5958 143.289 31.5958C142.311 31.5958 141.526 31.3988 140.932 31.0012C140.337 30.6035 140.038 30.0264 140.038 29.2593C140.038 28.7597 140.172 28.348 140.435 28.0313C140.699 27.7146 141.09 27.4648 141.604 27.2783C142.121 27.0953 142.765 26.9616 143.546 26.8806C144.324 26.8032 145.242 26.761 146.298 26.761H147.842V27.1586C147.846 28.0031 147.635 28.7562 147.213 29.4177Z" fill="white"/>
<path d="M174.55 15.3848L171.936 15.5431C170.272 15.6487 168.913 16.1906 167.858 17.1688C166.802 18.147 166.049 19.3856 165.599 20.8917H165.44V15.8211H159.856V35.7446H166.352V26.3951C166.352 25.1002 166.742 24.0199 167.52 23.1472C168.298 22.2746 169.441 21.7749 170.947 21.6412L175.106 21.2858L174.55 15.3848Z" fill="white"/>
</svg>
